<svg xmlns="http://www.w3.org/2000/svg" viewBox="0 0 100 100" width="100" height="100">
  <!-- Light background -->
  <circle cx="50" cy="50" r="45" fill="#e8f5e9"/>
  
  <!-- Feather - right side -->
  <path d="M68 18 Q82 32 78 55 Q74 78 52 88 Q48 84 52 76" fill="#f0e68c" stroke="#d4a574" stroke-width="1"/>
  <path d="M62 22 Q72 42 62 72" stroke="#c9a86c" stroke-width="2" fill="none"/>
  <path d="M60 28 Q68 30 72 34" stroke="#d4a574" stroke-width="1" fill="none"/>
  <path d="M58 38 Q66 40 70 44" stroke="#d4a574" stroke-width="1" fill="none"/>
  <path d="M56 48 Q62 50 64 54" stroke="#d4a574" stroke-width="1" fill="none"/>
  <path d="M54 58 Q60 60 60 64" stroke="#d4a574" stroke-width="1" fill="none"/>
  
  <!-- Delicate fern - left side with wispy leaflets -->
  <path d="M38 82 Q22 72 18 52 Q14 32 32 22" stroke="#2d6b3a" stroke-width="2" fill="none"/>
  <!-- Upper leaflets -->
  <path d="M30 28 Q22 24 18 20" stroke="#4a9c5d" stroke-width="1.5" fill="none"/>
  <path d="M28 32 Q18 28 14 24" stroke="#4a9c5d" stroke-width="1.5" fill="none"/>
  <path d="M26 38 Q14 34 10 28" stroke="#4a9c5d" stroke-width="1.5" fill="none"/>
  <path d="M24 44 Q12 40 8 34" stroke="#4a9c5d" stroke-width="1.5" fill="none"/>
  <path d="M24 50 Q12 46 10 40" stroke="#4a9c5d" stroke-width="1.5" fill="none"/>
  <path d="M26 56 Q14 52 12 46" stroke="#4a9c5d" stroke-width="1.5" fill="none"/>
  <path d="M28 62 Q18 58 16 52" stroke="#4a9c5d" stroke-width="1.5" fill="none"/>
  <path d="M32 68 Q22 64 20 58" stroke="#4a9c5d" stroke-width="1.5" fill="none"/>
  <path d="M36 74 Q28 70 26 64" stroke="#4a9c5d" stroke-width="1.5" fill="none"/>
</svg>