<svg xmlns="http://www.w3.org/2000/svg" viewBox="0 0 100 100" width="100" height="100">
  <!-- Light background -->
  <circle cx="50" cy="50" r="45" fill="#e8f5e9"/>
  
  <!-- Fern - LEFT side: classic fern frond with leaflets -->
  <path d="M35 82 Q25 70 20 50 Q15 30 30 20" stroke="#2d6b3a" stroke-width="2" fill="none"/>
  <!-- Fern leaflets - delicate, alternating -->
  <path d="M28 24 L18 20" stroke="#4a9c5d" stroke-width="2"/>
  <path d="M26 28 L14 26" stroke="#4a9c5d" stroke-width="2"/>
  <path d="M24 33 L12 32" stroke="#4a9c5d" stroke-width="2"/>
  <path d="M22 38 L10 38" stroke="#4a9c5d" stroke-width="2"/>
  <path d="M20 43 L8 44" stroke="#4a9c5d" stroke-width="2"/>
  <path d="M20 48 L8 50" stroke="#4a9c5d" stroke-width="2"/>
  <path d="M22 53 L10 56" stroke="#4a9c5d" stroke-width="2"/>
  <path d="M24 58 L14 62" stroke="#4a9c5d" stroke-width="2"/>
  <path d="M28 63 L18 68" stroke="#4a9c5d" stroke-width="2"/>
  <path d="M32 68 L24 72" stroke="#4a9c5d" stroke-width="2"/>
  
  <!-- Feather - RIGHT side: curved with clear barbs -->
  <path d="M55 25 Q75 35 70 60 Q65 80 55 85" fill="#f5deb3" stroke="#d4a574" stroke-width="1"/>
  <!-- Feather rachis (center shaft) -->
  <path d="M58 28 Q70 45 65 72" stroke="#b8956c" stroke-width="2" fill="none"/>
  <!-- Feather barbs - angled off the rachis -->
  <path d="M60 30 L72 28" stroke="#d4a574" stroke-width="1"/>
  <path d="M62 35 L74 35" stroke="#d4a574" stroke-width="1"/>
  <path d="M62 40 L72 42" stroke="#d4a574" stroke-width="1"/>
  <path d="M60 45 L70 48" stroke="#d4a574" stroke-width="1"/>
  <path d="M58 50 L66 54" stroke="#d4a574" stroke-width="1"/>
  <path d="M56 55 L62 60" stroke="#d4a574" stroke-width="1"/>
</svg>